<?xml version="1.0" encoding="UTF-8"?>
<svg width="120px" height="120px" viewBox="0 0 120 120" version="1.1" xmlns="http://www.w3.org/2000/svg" xmlns:xlink="http://www.w3.org/1999/xlink">
    <!-- Generator: Sketch 49.3 (51167) - http://www.bohemiancoding.com/sketch -->
    <title>button_scan</title>
    <desc>Created with Sketch.</desc>
    <defs></defs>
    <g id="Page-1" stroke="none" stroke-width="1" fill="none" fill-rule="evenodd">
        <g id="s2-main" transform="translate(-40.000000, -222.000000)">
            <g id="Group-2" transform="translate(40.000000, 222.000000)">
                <g id="button_scan">
                    <circle id="Oval-2" fill="#1E88E5" cx="60" cy="60" r="60"></circle>
                    <g id="ic_qrcode" transform="translate(28.000000, 28.000000)">
                        <g>
                            <rect id="Rectangle" fill-opacity="0" fill="#FF0000" x="0" y="0" width="64" height="64"></rect>
                            <path d="M8,8 L29.3333333,8 L29.3333333,29.3333333 L8,29.3333333 L8,8 Z M34.6666667,8 L56,8 L56,29.3333333 L34.6666667,29.3333333 L34.6666667,8 Z M8,34.6666667 L29.3333333,34.6666667 L29.3333333,56 L8,56 L8,34.6666667 Z M34.6666667,34.6666667 L45.3333333,34.6666667 L45.3333333,40 L50.6666667,40 L50.6666667,34.6666667 L56,34.6666667 L56,48 L42.6666667,48 L42.6666667,45.3333333 L40,45.3333333 L40,56 L34.6666667,56 L34.6666667,34.6666667 Z M42.6666667,50.6666667 L48,50.6666667 L48,56 L42.6666667,56 L42.6666667,50.6666667 Z M50.6666667,50.6666667 L56,50.6666667 L56,56 L50.6666667,56 L50.6666667,50.6666667 Z M13.3333333,13.3333333 L13.3333333,24 L24,24 L24,13.3333333 L13.3333333,13.3333333 Z M40,13.3333333 L40,24 L50.6666667,24 L50.6666667,13.3333333 L40,13.3333333 Z M13.3333333,40 L13.3333333,50.6666667 L24,50.6666667 L24,40 L13.3333333,40 Z" id="Combined-Shape" fill="#FFFFFF"></path>
                        </g>
                    </g>
                </g>
            </g>
        </g>
    </g>
</svg>