<?xml version="1.0" encoding="UTF-8"?>
<svg width="100px" height="100px" viewBox="0 0 100 100" version="1.1" xmlns="http://www.w3.org/2000/svg" xmlns:xlink="http://www.w3.org/1999/xlink">
    <!-- Generator: Sketch 49.3 (51167) - http://www.bohemiancoding.com/sketch -->
    <title>icon</title>
    <desc>Created with Sketch.</desc>
    <defs></defs>
    <g id="Page-1" stroke="none" stroke-width="1" fill="none" fill-rule="evenodd">
        <g id="s1-signin" transform="translate(-130.000000, -88.000000)">
            <g id="ticket-tool" transform="translate(130.000000, 88.000000)">
                <rect id="Rectangle" fill="#0D47A1" x="0" y="0" width="100" height="100"></rect>
                <g id="Guzzu/Logo/Guzzu-light" transform="translate(24.609375, 70.117188)" fill="#FFFFFF">
                    <path d="M5.68209149,10.8513514 C7.65847114,10.8513514 9.18707727,10.1122144 10.2987908,9.21046737 L10.2987908,4.71651486 L5.60488916,4.71651486 L5.60488916,6.68261908 L7.99816139,6.68261908 L7.99816139,8.16089294 C7.39598322,8.57480962 6.62395991,8.78176796 5.75929382,8.78176796 C3.84467603,8.78176796 2.48591503,7.39219053 2.48591503,5.5 L2.48591503,5.47043452 C2.48591503,3.71128864 3.8601165,2.24779752 5.58944869,2.24779752 C6.84012644,2.24779752 7.58126881,2.63214872 8.41505397,3.29737196 L9.91277917,1.56779155 C8.78562516,0.651261759 7.61214974,0.148648649 5.66665102,0.148648649 C2.39327223,0.148648649 0,2.55823503 0,5.5 L0,5.52956548 C0,8.58959235 2.3160699,10.8513514 5.68209149,10.8513514 Z M15.90368,10.8365686 C18.8064876,10.8365686 20.643903,9.2991638 20.643903,6.16522323 L20.643903,0.326041511 L18.2660713,0.326041511 L18.2660713,6.25391967 C18.2660713,7.89480364 17.3859647,8.73741974 15.9345609,8.73741974 C14.4831571,8.73741974 13.6030505,7.86523817 13.6030505,6.18000597 L13.6030505,0.326041511 L11.2252188,0.326041511 L11.2252188,6.23913693 C11.2252188,9.28438107 13.0008724,10.8365686 15.90368,10.8365686 Z M21.570331,10.6739585 L30.5721227,10.6739585 L30.5721227,8.67828879 L24.6275433,8.67828879 L30.5721227,2.05562192 L30.5721227,0.326041511 L21.7556166,0.326041511 L21.7556166,2.32171121 L27.5149104,2.32171121 L21.570331,8.94437808 L21.570331,10.6739585 Z M31.4985506,10.6739585 L40.5003423,10.6739585 L40.5003423,8.67828879 L34.5557629,8.67828879 L40.5003423,2.05562192 L40.5003423,0.326041511 L31.6838362,0.326041511 L31.6838362,2.32171121 L37.4431301,2.32171121 L31.4985506,8.94437808 L31.4985506,10.6739585 Z M46.1052315,10.8365686 C49.0080391,10.8365686 50.8454545,9.2991638 50.8454545,6.16522323 L50.8454545,0.326041511 L48.4676228,0.326041511 L48.4676228,6.25391967 C48.4676228,7.89480364 47.5875162,8.73741974 46.1361124,8.73741974 C44.6847086,8.73741974 43.804602,7.86523817 43.804602,6.18000597 L43.804602,0.326041511 L41.4267703,0.326041511 L41.4267703,6.23913693 C41.4267703,9.28438107 43.2024239,10.8365686 46.1052315,10.8365686 Z" id="GUZZU"></path>
                </g>
                <g id="tickets" stroke-width="1" transform="translate(22.656250, 28.515625)" fill="#FFFFFF">
                    <path d="M54.6875,13.0800189 L54.6875,3.01846592 C54.6875,1.35830967 53.3691406,0 51.7578125,0 L2.9296875,0 C1.31835938,0 0.0146484375,1.35830967 0.0146484375,3.01846592 L0.0146484375,13.0800189 C1.62597656,13.0800189 2.9296875,14.4383286 2.9296875,16.0984849 C2.9296875,17.7586411 1.62597656,19.1169508 0,19.1169508 L0,30.1846591 C0,31.8448153 1.31835938,33.203125 2.9296875,33.203125 L51.7578125,33.203125 C53.3691406,33.203125 54.6875,31.8448153 54.6875,30.1846591 L54.6875,19.1169508 C53.0761719,19.1169508 51.7578125,17.7586411 51.7578125,16.0984849 C51.7578125,14.4383286 53.0761719,13.0800189 54.6875,13.0800189 Z M22.4609375,19.2871094 L17.2167969,22.65625 L18.7988281,16.6210938 L13.9794922,12.6806641 L20.1904297,12.3144531 L22.4609375,6.54296875 L24.7167969,12.3291016 L30.9277344,12.6953125 L26.1083984,16.6357422 L27.7050781,22.65625 L22.4609375,19.2871094 Z M41.9921875,0 L43.9453125,0 L43.9453125,1.953125 L41.9921875,1.953125 L41.9921875,0 Z M41.9921875,4.8828125 L43.9453125,4.8828125 L43.9453125,6.8359375 L41.9921875,6.8359375 L41.9921875,4.8828125 Z M41.9921875,10.7421875 L43.9453125,10.7421875 L43.9453125,12.6953125 L41.9921875,12.6953125 L41.9921875,10.7421875 Z M41.9921875,15.625 L43.9453125,15.625 L43.9453125,17.578125 L41.9921875,17.578125 L41.9921875,15.625 Z M41.9921875,20.5078125 L43.9453125,20.5078125 L43.9453125,22.4609375 L41.9921875,22.4609375 L41.9921875,20.5078125 Z M41.9921875,31.25 L43.9453125,31.25 L43.9453125,33.203125 L41.9921875,33.203125 L41.9921875,31.25 Z M41.9921875,26.3671875 L43.9453125,26.3671875 L43.9453125,28.3203125 L41.9921875,28.3203125 L41.9921875,26.3671875 Z" id="Shape" fill-rule="nonzero"></path>
                </g>
            </g>
        </g>
    </g>
</svg>